<svg width="360" height="126" viewBox="0 0 360 126" fill="none" xmlns="http://www.w3.org/2000/svg">
<path d="M168.61 54.968C166.286 54.968 164.41 55.542 162.982 56.69C162.114 56.242 161.61 55.878 161.47 55.598C161.47 53.918 161.89 52.434 162.73 51.146C163.57 49.83 164.802 49.172 166.426 49.172C168.106 49.172 170.766 50.096 174.406 51.944C175.75 52.644 176.632 53.05 177.052 53.162C178.144 52.294 179.348 51.58 180.664 51.02C182.008 50.46 183.17 50.18 184.15 50.18C185.158 50.18 186.082 50.474 186.922 51.062C187.762 51.65 188.182 52.532 188.182 53.708C188.182 54.884 187.706 55.92 186.754 56.816C185.83 57.712 184.528 58.16 182.848 58.16C182.092 58.16 181.252 58.048 180.328 57.824C179.432 57.572 178.886 57.432 178.69 57.404C177.822 58.272 176.856 59.476 175.792 61.016C174.756 62.528 173.874 64.11 173.146 65.762C173.594 65.706 173.93 65.678 174.154 65.678C176.31 65.678 178.228 66.308 179.908 67.568C181.616 68.8 182.47 70.508 182.47 72.692C182.47 74.876 181.658 76.794 180.034 78.446C178.438 80.098 176.268 80.924 173.524 80.924C170.78 80.924 168.666 80.014 167.182 78.194C165.726 76.374 164.998 74.246 164.998 71.81C163.234 73.462 162.1 75.268 161.596 77.228C160.952 77.116 160.336 76.92 159.748 76.64C159.16 76.332 158.782 76.038 158.614 75.758C159.706 72.986 162.03 70.382 165.586 67.946C166.258 65.762 167.336 63.606 168.82 61.478C170.332 59.35 171.942 57.46 173.65 55.808C171.886 55.248 170.206 54.968 168.61 54.968ZM179.572 72.566C179.572 71.362 179.054 70.382 178.018 69.626C176.982 68.842 175.918 68.45 174.826 68.45C173.734 68.45 172.81 68.604 172.054 68.912C171.774 69.864 171.634 71.012 171.634 72.356C171.634 73.672 171.998 74.82 172.726 75.8C173.482 76.752 174.434 77.228 175.582 77.228C176.758 77.228 177.71 76.752 178.438 75.8C179.194 74.82 179.572 73.742 179.572 72.566ZM185.536 54.002C185.536 53.47 185.13 53.204 184.318 53.204C183.534 53.204 182.47 53.792 181.126 54.968C181.63 55.248 182.246 55.388 182.974 55.388C183.702 55.388 184.304 55.262 184.78 55.01C185.284 54.758 185.536 54.422 185.536 54.002ZM187.243 80.126H186.949C186.893 79.902 186.865 79.398 186.865 78.614C186.865 77.802 187.243 75.646 187.999 72.146C188.755 68.646 189.133 66.644 189.133 66.14C189.133 65.272 188.741 64.32 187.957 63.284L187.579 62.78L187.621 62.234C189.133 61.814 191.555 61.604 194.887 61.604C195.223 62.332 195.391 63.354 195.391 64.67C195.699 64.166 196.343 63.494 197.323 62.654C198.303 61.814 199.311 61.394 200.347 61.394C201.859 61.394 202.615 62.71 202.615 65.342C202.475 65.51 202.279 65.734 202.027 66.014C201.803 66.266 201.327 66.63 200.599 67.106C199.899 67.582 199.213 67.876 198.541 67.988C198.513 67.988 198.275 67.61 197.827 66.854C197.379 66.098 197.043 65.72 196.819 65.72C196.119 65.972 195.503 66.392 194.971 66.98C193.683 72.776 193.039 76.528 193.039 78.236C193.039 78.852 193.053 79.286 193.081 79.538C192.101 79.93 190.155 80.126 187.243 80.126ZM210.395 63.998C210.395 65.174 210.017 67.204 209.261 70.088C208.505 72.944 208.127 74.82 208.127 75.716C208.127 76.584 208.253 77.018 208.505 77.018C208.673 77.018 209.317 76.752 210.437 76.22L210.941 75.968L211.655 77.438C211.403 77.662 211.067 77.942 210.647 78.278C210.227 78.614 209.443 79.076 208.295 79.664C207.147 80.224 206.083 80.504 205.103 80.504C204.123 80.504 203.353 80.21 202.793 79.622C202.233 79.006 201.953 78.194 201.953 77.186C201.953 76.15 202.303 74.33 203.003 71.726C203.703 69.094 204.053 67.386 204.053 66.602C204.053 65.426 203.689 64.32 202.961 63.284L202.583 62.78L202.625 62.234C204.109 61.814 206.517 61.604 209.849 61.604C210.213 62.024 210.395 62.822 210.395 63.998ZM205.607 57.026C205.047 56.466 204.767 55.724 204.767 54.8C204.767 53.876 205.145 53.064 205.901 52.364C206.685 51.664 207.581 51.314 208.589 51.314C209.597 51.314 210.381 51.594 210.941 52.154C211.501 52.714 211.781 53.456 211.781 54.38C211.781 55.276 211.375 56.074 210.563 56.774C209.779 57.474 208.897 57.824 207.917 57.824C206.937 57.824 206.167 57.558 205.607 57.026ZM217.219 61.394C218.451 61.394 219.361 61.646 219.949 62.15C220.565 62.654 220.873 63.69 220.873 65.258C220.873 66.098 220.621 67.82 220.117 70.424C219.613 73 219.361 74.568 219.361 75.128C219.361 76.248 219.585 76.808 220.033 76.808C221.097 76.808 222.259 76.024 223.519 74.456C224.807 72.86 225.479 71.53 225.535 70.466L222.679 67.274C222.791 66.07 223.085 64.978 223.561 63.998C224.037 63.018 224.485 62.332 224.905 61.94L225.493 61.394C226.697 61.394 227.607 61.716 228.223 62.36C228.839 63.004 229.147 63.76 229.147 64.628C229.147 66.84 228.601 69.178 227.509 71.642C226.417 74.106 224.961 76.206 223.141 77.942C221.321 79.65 219.473 80.504 217.597 80.504C216.421 80.504 215.511 80.14 214.867 79.412C214.251 78.684 213.943 77.732 213.943 76.556C213.943 75.352 214.027 73.742 214.195 71.726C214.391 69.71 214.489 67.708 214.489 65.72C214.489 65.272 214.321 64.74 213.985 64.124C213.677 63.508 213.355 63.018 213.019 62.654L213.145 62.15C214.657 61.646 216.015 61.394 217.219 61.394ZM238.368 63.998C238.368 65.174 237.99 67.204 237.234 70.088C236.478 72.944 236.1 74.82 236.1 75.716C236.1 76.584 236.226 77.018 236.478 77.018C236.646 77.018 237.29 76.752 238.41 76.22L238.914 75.968L239.628 77.438C239.376 77.662 239.04 77.942 238.62 78.278C238.2 78.614 237.416 79.076 236.268 79.664C235.12 80.224 234.056 80.504 233.076 80.504C232.096 80.504 231.326 80.21 230.766 79.622C230.206 79.006 229.926 78.194 229.926 77.186C229.926 76.15 230.276 74.33 230.976 71.726C231.676 69.094 232.026 67.386 232.026 66.602C232.026 65.426 231.662 64.32 230.934 63.284L230.556 62.78L230.598 62.234C232.082 61.814 234.49 61.604 237.822 61.604C238.186 62.024 238.368 62.822 238.368 63.998ZM233.58 57.026C233.02 56.466 232.74 55.724 232.74 54.8C232.74 53.876 233.118 53.064 233.874 52.364C234.658 51.664 235.554 51.314 236.562 51.314C237.57 51.314 238.354 51.594 238.914 52.154C239.474 52.714 239.754 53.456 239.754 54.38C239.754 55.276 239.348 56.074 238.536 56.774C237.752 57.474 236.87 57.824 235.89 57.824C234.91 57.824 234.14 57.558 233.58 57.026ZM253.633 62.612C253.689 62.556 253.843 62.192 254.095 61.52C255.411 61.52 257.175 61.912 259.387 62.696C258.687 65.02 258.127 67.456 257.707 70.004C257.287 72.524 257.077 74.33 257.077 75.422C257.077 76.486 257.189 77.018 257.413 77.018C257.581 77.018 258.197 76.752 259.261 76.22L259.765 75.968L260.521 77.438C260.269 77.662 259.933 77.942 259.513 78.278C259.121 78.614 258.365 79.076 257.245 79.664C256.125 80.224 255.117 80.504 254.221 80.504C252.485 80.504 251.477 79.72 251.197 78.152C249.405 79.72 247.781 80.504 246.325 80.504C244.897 80.504 243.679 79.944 242.671 78.824C241.691 77.704 241.201 75.94 241.201 73.532C241.201 69.78 241.971 66.826 243.511 64.67C245.051 62.486 246.913 61.394 249.097 61.394C250.665 61.394 252.177 61.8 253.633 62.612ZM248.845 76.934C249.517 76.934 250.273 76.668 251.113 76.136C251.309 72.188 251.967 68.282 253.087 64.418C252.247 64.054 251.533 63.872 250.945 63.872C249.937 63.872 249.069 64.866 248.341 66.854C247.641 68.814 247.291 70.984 247.291 73.364C247.291 75.744 247.809 76.934 248.845 76.934ZM301.919 91.928C301.443 92.852 300.715 93.678 299.735 94.406C298.783 95.134 297.775 95.498 296.711 95.498C295.675 95.498 294.709 95.344 293.813 95.036C292.917 94.728 291.965 94.238 290.957 93.566C289.977 92.922 289.151 92.334 288.479 91.802C287.807 91.298 286.897 90.556 285.749 89.576C284.601 88.624 283.789 87.966 283.313 87.602C281.605 89.254 279.673 90.08 277.517 90.08C276.145 90.08 275.011 89.73 274.115 89.03C273.247 88.33 272.813 87.392 272.813 86.216C272.813 85.068 273.275 84.074 274.199 83.234C275.151 82.422 276.299 82.016 277.643 82.016C278.987 82.016 280.303 82.24 281.591 82.688C282.319 81.036 282.851 78.992 283.187 76.556C281.983 77.312 280.625 77.69 279.113 77.69C276.565 77.69 274.493 76.752 272.897 74.876C271.301 72.972 270.503 70.508 270.503 67.484C270.503 64.46 271.091 61.66 272.267 59.084C273.443 56.48 275.123 54.352 277.307 52.7C279.519 51.02 281.955 50.18 284.615 50.18C285.539 50.18 286.421 50.32 287.261 50.6C289.361 49.284 291.461 48.626 293.561 48.626C295.689 48.626 297.285 49.13 298.349 50.138C298.125 51.258 297.733 52.126 297.173 52.742C296.053 51.762 294.807 51.272 293.435 51.272C292.063 51.272 290.775 51.538 289.571 52.07C290.859 53.442 291.503 55.248 291.503 57.488C291.503 59.112 291.237 60.694 290.705 62.234C290.201 63.746 289.389 65.048 288.269 66.14C287.149 67.204 285.903 67.736 284.531 67.736C283.187 67.736 282.165 67.218 281.465 66.182C280.765 65.146 280.415 63.816 280.415 62.192C280.415 58.916 281.717 55.878 284.321 53.078C282.249 53.218 280.541 54.548 279.197 57.068C277.881 59.56 277.223 62.374 277.223 65.51C277.223 68.618 277.629 70.76 278.441 71.936C279.253 73.112 280.275 73.7 281.507 73.7C283.551 73.7 285.399 72.342 287.051 69.626L290.411 70.424C289.291 76.556 287.709 81.302 285.665 84.662C286.085 84.886 287.107 85.488 288.731 86.468C290.383 87.476 291.573 88.162 292.301 88.526C293.057 88.918 294.093 89.324 295.409 89.744C296.725 90.192 297.943 90.416 299.063 90.416L300.953 90.29C301.429 90.962 301.751 91.508 301.919 91.928ZM284.699 65.174C285.847 65.174 286.771 64.446 287.471 62.99C288.199 61.506 288.563 59.798 288.563 57.866C288.563 55.934 288.031 54.548 286.967 53.708C285.735 54.772 284.755 56.06 284.027 57.572C283.327 59.084 282.977 60.484 282.977 61.772C282.977 64.04 283.551 65.174 284.699 65.174ZM277.307 86.93C278.315 86.93 279.267 86.426 280.163 85.418C279.127 84.858 278.189 84.578 277.349 84.578C276.145 84.578 275.543 84.984 275.543 85.796C275.543 86.16 275.725 86.44 276.089 86.636C276.453 86.832 276.859 86.93 277.307 86.93ZM305.19 62.612C305.246 62.556 305.4 62.192 305.652 61.52C306.968 61.52 308.732 61.912 310.944 62.696C310.244 65.02 309.684 67.456 309.264 70.004C308.844 72.524 308.634 74.33 308.634 75.422C308.634 76.486 308.746 77.018 308.97 77.018C309.138 77.018 309.754 76.752 310.818 76.22L311.322 75.968L312.078 77.438C311.826 77.662 311.49 77.942 311.07 78.278C310.678 78.614 309.922 79.076 308.802 79.664C307.682 80.224 306.674 80.504 305.778 80.504C304.042 80.504 303.034 79.72 302.754 78.152C300.962 79.72 299.338 80.504 297.882 80.504C296.454 80.504 295.236 79.944 294.228 78.824C293.248 77.704 292.758 75.94 292.758 73.532C292.758 69.78 293.528 66.826 295.068 64.67C296.608 62.486 298.47 61.394 300.654 61.394C302.222 61.394 303.734 61.8 305.19 62.612ZM300.402 76.934C301.074 76.934 301.83 76.668 302.67 76.136C302.866 72.188 303.524 68.282 304.644 64.418C303.804 64.054 303.09 63.872 302.502 63.872C301.494 63.872 300.626 64.866 299.898 66.854C299.198 68.814 298.848 70.984 298.848 73.364C298.848 75.744 299.366 76.934 300.402 76.934ZM313.988 80.126H313.19C313.19 78.81 313.582 76.29 314.366 72.566C315.178 68.842 315.584 66.728 315.584 66.224C315.584 65.3 315.192 64.32 314.408 63.284L314.03 62.78L314.072 62.234C315.584 61.814 318.006 61.604 321.338 61.604C321.73 62.136 321.926 63.004 321.926 64.208C324.446 62.332 326.448 61.394 327.932 61.394C329.808 61.394 330.914 62.36 331.25 64.292C332.006 63.676 332.986 63.046 334.19 62.402C335.422 61.73 336.514 61.394 337.466 61.394C338.446 61.394 339.258 61.716 339.902 62.36C340.546 62.976 340.868 63.844 340.868 64.964C340.868 66.084 340.56 67.932 339.944 70.508C339.328 73.084 339.02 74.82 339.02 75.716C339.02 76.584 339.146 77.018 339.398 77.018C339.566 77.018 340.14 76.752 341.12 76.22L341.582 75.968L342.338 77.438C341.61 78.166 340.616 78.866 339.356 79.538C338.124 80.182 337.032 80.504 336.08 80.504C333.98 80.504 332.93 79.314 332.93 76.934C332.93 76.066 333.224 74.33 333.812 71.726C334.428 69.094 334.736 67.386 334.736 66.602C334.736 65.79 334.498 65.384 334.022 65.384C333.21 65.384 332.286 65.692 331.25 66.308C331.194 66.868 330.802 68.772 330.074 72.02C329.374 75.268 329.024 77.788 329.024 79.58C328.212 79.944 326.308 80.126 323.312 80.126C323.256 79.818 323.228 79.076 323.228 77.9C323.228 76.724 323.55 74.722 324.194 71.894C324.866 69.066 325.202 67.274 325.202 66.518C325.202 65.762 324.936 65.384 324.404 65.384C323.564 65.384 322.64 65.72 321.632 66.392C321.576 66.644 321.296 67.876 320.792 70.088C319.784 74.512 319.28 77.662 319.28 79.538C318.3 79.93 316.536 80.126 313.988 80.126ZM343.53 72.734C343.53 69.234 344.58 66.476 346.68 64.46C348.808 62.416 351.216 61.394 353.904 61.394C355.556 61.394 356.914 61.8 357.978 62.612C359.042 63.424 359.574 64.516 359.574 65.888C359.574 67.232 359.224 68.366 358.524 69.29C357.852 70.214 357.026 70.928 356.046 71.432C354.058 72.412 352.238 73.028 350.586 73.28L349.578 73.406C349.774 76.038 350.852 77.354 352.812 77.354C353.484 77.354 354.198 77.186 354.954 76.85C355.71 76.514 356.298 76.178 356.718 75.842L357.348 75.338L358.356 76.682C358.132 76.99 357.684 77.396 357.012 77.9C356.34 78.404 355.71 78.824 355.122 79.16C353.498 80.056 351.72 80.504 349.788 80.504C347.856 80.504 346.33 79.818 345.209 78.446C344.09 77.074 343.53 75.17 343.53 72.734ZM349.536 71.348C350.964 71.096 352.098 70.494 352.938 69.542C353.778 68.59 354.198 67.358 354.198 65.846C354.198 64.334 353.75 63.578 352.854 63.578C351.79 63.578 350.964 64.488 350.376 66.308C349.816 68.1 349.536 69.78 349.536 71.348Z" fill="#544B3D"/>
<g clip-path="url(#clip0_154_116)">
<path d="M97.7024 6.81681C60.0034 -8.22871 17.4517 6.89621 4.17919 37.3112C4.0489 37.3906 4.00099 37.5404 4.0378 37.6693C-0.210894 47.6121 -1.36012 59.1609 1.81121 71.8228C9.91539 104.18 44.0656 108.74 75.3687 103.589C75.062 117.345 93.8843 125.13 106.974 125.065C107.817 125.061 108.24 124.12 107.657 123.581C102.275 118.607 98.9644 112.677 97.786 105.864C122.884 105.882 138.092 85.0974 139.814 64.0353C142.019 37.0551 124.421 17.4796 97.7024 6.81681ZM95.602 103.881C94.2162 103.825 94.2243 105.751 95.602 105.817C95.7008 105.821 95.7966 105.819 95.8953 105.823C96.9966 112.455 99.908 118.239 104.744 123.259C100.325 123.012 95.6914 121.966 91.4743 120.204C92.2157 120.463 93.4344 120.383 94.1951 120.439C95.4051 120.529 96.6046 120.586 97.8193 120.597C98.1213 120.6 98.209 120.148 97.8929 120.108C96.9195 119.982 95.9532 119.874 94.9716 119.806C94.454 119.77 93.9363 119.739 93.4181 119.707C93.2375 119.695 92.0965 119.709 91.5473 119.717C91.6168 119.657 91.656 119.569 91.5923 119.485L91.5175 119.386C91.4602 119.31 91.3662 119.27 91.2657 119.293C90.6137 119.443 90.8625 119.9 91.2791 120.122C88.6138 118.99 86.1313 117.559 83.9818 115.854C86.9299 115.957 89.8682 116.163 92.8023 116.466C93.2305 116.51 93.3334 115.848 92.9051 115.785C89.6374 115.297 86.3585 115.103 83.0534 115.086C81.7149 113.916 80.54 112.622 79.5608 111.215C82.0339 111.601 84.5059 112.034 86.9995 112.288C87.3564 112.325 87.4382 111.784 87.0848 111.722C84.5287 111.275 81.9281 111.022 79.3481 110.707C79.3054 110.702 79.2762 110.722 79.24 110.731C78.3554 109.372 77.6812 107.899 77.2091 106.335C80.2519 106.497 83.3257 106.49 86.3404 106.063C86.7424 106.006 86.6518 105.39 86.2434 105.42C83.165 105.646 80.1321 105.831 77.0467 105.728C76.7838 104.716 76.5828 103.677 76.5215 102.582C76.4847 101.926 75.492 101.931 75.3892 102.546C57.3655 104.87 37.2643 106.17 21.5537 96.4316C28.8101 97.2908 36.0765 98.1011 43.3516 98.8115C43.8278 98.8578 43.8132 98.2015 43.3516 98.1469C35.7119 97.2393 28.0535 96.4358 20.3916 95.6918C18.1195 94.1758 16.1015 92.4648 14.2891 90.6159C18.6523 91.4888 23.0658 92.1787 27.5271 92.4626C27.9945 92.4926 27.9747 91.8653 27.5271 91.8175C22.8327 91.3121 18.1785 90.7343 13.5524 89.8593C11.7102 87.8727 10.1491 85.7079 8.78077 83.4431C12.4528 83.6971 16.1254 83.959 19.8039 84.1135C20.283 84.1335 20.2719 83.4841 19.8039 83.4489C15.9957 83.1597 12.1782 82.9856 8.36303 82.799C7.11681 80.6468 6.09203 78.3868 5.23493 76.0652C9.15878 76.6631 13.1077 76.9286 17.0994 76.8277C17.5942 76.8151 17.5972 76.1357 17.0994 76.1336C13.0248 76.1152 8.99344 75.8097 4.96735 75.2933C4.30539 73.3961 3.80643 71.4495 3.37993 69.4871C11.5554 69.6117 19.7402 69.8152 27.9139 69.556C28.3895 69.5407 28.3889 68.9103 27.9139 68.8913C19.6946 68.5601 11.4578 68.6968 3.23328 68.7504C2.80327 66.6229 2.50647 64.4728 2.32535 62.3185C2.47609 62.5046 2.55087 62.5535 2.86228 62.533C3.00893 62.5236 3.10825 62.4347 3.11935 62.3017C3.1211 62.2822 3.12286 62.2622 3.12461 62.2428C5.0953 62.4878 12.8191 62.6266 13.6231 62.5756C14.1197 62.5441 14.1319 61.8705 13.6231 61.8715C11.0313 61.8779 8.42671 61.8395 5.83964 61.6954C4.76695 61.6354 3.01944 61.0534 2.30256 61.9751C2.1787 60.3808 2.10859 58.7844 2.13255 57.1938C2.15066 55.9965 2.2605 54.8244 2.35632 53.6481C6.74348 54.0667 11.1452 54.4253 15.5493 54.6304C16.0115 54.6519 15.9899 54.0404 15.5493 53.9946C11.1815 53.544 6.78788 53.2422 2.39721 53.0024C2.62215 50.6062 3.058 48.2773 3.59318 45.9852C12.8589 46.2881 22.1199 46.5778 31.392 46.6583C32.0235 46.6635 32.0189 45.8012 31.392 45.7786C22.1888 45.4452 12.9851 45.3195 3.77605 45.207C4.38075 42.7877 5.18352 40.4456 6.11599 38.1651C10.6475 38.8986 15.1947 39.1116 19.805 38.6362C20.3239 38.5826 20.3379 37.8475 19.805 37.8933C15.2788 38.2834 10.8204 38.1762 6.35728 37.5378C7.65082 34.489 9.25284 31.5923 11.0938 28.8427C16.3165 29.2954 21.5251 29.8391 26.7588 30.1794C27.1894 30.2072 27.1742 29.6246 26.7588 29.5831C21.6536 29.0693 16.5315 28.7496 11.4146 28.3495C13.4659 25.3575 15.8456 22.5748 18.4899 20.0088C23.6851 20.4957 28.8779 21.011 34.0912 21.317C34.6854 21.3518 34.6626 20.5535 34.0912 20.4957C29.1239 19.9951 24.1367 19.6865 19.1519 19.361C28.2551 10.8126 40.5367 4.92225 54.8053 3.00455C83.1177 -0.801391 118.702 12.6425 132.508 36.0208C147.567 61.5203 132.482 105.372 95.602 103.881Z" fill="#544B3D"/>
<path d="M69.9941 19.0932C46.5656 15.8936 24.4405 44.0617 47.8498 57.952C48.0426 58.0666 48.2371 58.0177 48.4048 57.923C48.6385 58.146 49.03 58.2233 49.3548 57.9341C51.1368 56.3508 52.9053 54.756 54.7749 53.2558C55.7682 52.4586 58.0339 51.3507 58.4581 50.1245C59.1317 48.1779 56.45 45.5661 55.9826 43.8498C53.3003 34.0057 67.0209 32.6454 72.1623 39.3687C75.7105 44.0086 77.0741 55.2613 68.0801 56.2188C67.8079 56.2477 67.6051 56.365 67.4585 56.5191C67.3673 55.6378 65.7729 55.7077 65.6409 56.6837C64.5717 64.5769 64.2714 72.5205 64.5063 80.4653C64.5226 81.02 65.0958 81.4275 65.7011 81.2845C70.4318 80.1703 74.9591 79.9132 79.7927 80.4453C80.2589 80.4968 80.7847 80.0152 80.7316 79.6003C80.0217 74.0286 79.8774 68.3749 79.0244 62.8237C79.1611 62.8737 79.313 62.8953 79.483 62.8516C105.176 56.1925 91.5958 22.0431 69.9941 19.0932ZM78.8929 61.5917C78.7568 61.6548 78.6732 61.7453 78.6125 61.8436C78.3431 61.8005 78.0037 61.9572 77.9721 62.2464C77.6835 64.8587 77.7723 67.45 77.9277 70.0697C78.0119 71.4857 79.3837 76.8381 78.6358 77.8708C77.7075 79.1533 74.2043 78.3872 72.5695 78.4834C70.4691 78.6075 68.4219 78.9646 66.3846 79.4052C66.221 72.123 66.6107 64.8997 67.3831 57.6512C67.5286 57.8179 67.7553 57.9241 68.0807 57.8899C81.7616 56.4497 77.6216 37.0671 67.1547 33.7728C62.424 32.2836 56.8192 33.7812 54.5278 37.9889C52.8381 41.0913 54.21 43.254 55.0332 46.3248C55.7454 48.9803 55.4749 49.9504 53.5503 52.1521C52.043 53.8763 50.0168 55.3396 48.4147 57.0212C27.492 41.8464 49.0989 15.7469 72.2757 21.3822C92.5592 26.315 98.5805 52.5059 78.8929 61.5917Z" fill="#544B3D"/>
<path d="M80.0082 83.6214C78.8776 82.9247 76.4606 83.3885 75.2518 83.4084C72.5794 83.4531 69.8363 83.3564 67.199 83.7718C66.79 83.8365 66.7889 84.4533 67.199 84.5169C68.7449 84.7567 70.2821 84.7651 71.8491 84.8019C73.6229 84.8429 76.432 84.3854 78.0866 84.9028C79.6787 85.4008 78.9413 87.6403 78.873 89.0479C78.7982 90.5839 78.724 92.1198 78.6451 93.6558C75.6058 93.2256 72.5549 93.1894 69.5027 93.6742C68.9956 93.7546 67.4584 94.363 66.9811 94.1942C65.5736 93.6968 65.9452 92.0141 65.9446 91.0298C65.9434 89.7562 65.2663 85.9661 66.419 85.0096C67.3211 84.2608 66.0211 83.1865 65.1056 83.8275C63.451 84.9859 64.0183 87.3853 64.0131 89.0427C64.0078 90.7217 63.2027 93.9771 64.425 95.39C65.3165 96.4201 66.8134 96.0299 68.0035 95.7791C71.7936 94.9788 75.4446 94.8368 79.2884 95.4473C79.8983 95.544 80.4592 95.2196 80.4803 94.6301C80.5761 91.9242 80.7367 89.2178 80.8022 86.5108C80.8244 85.5491 81.0592 84.2692 80.0082 83.6214Z" fill="#544B3D"/>
<path d="M43.7495 12.4783C38.8435 12.5593 33.9387 12.4525 29.0549 12.0156C28.681 11.9819 28.5893 12.5651 28.9655 12.6108C33.8908 13.2118 38.7822 13.4737 43.7501 13.2407C44.2905 13.2155 44.2981 12.4694 43.7495 12.4783Z" fill="#544B3D"/>
<path d="M61.9034 7.20161C55.0548 7.20529 48.226 6.99076 41.4201 6.27563C40.8901 6.21989 40.7599 7.05123 41.2933 7.12063C48.1472 8.01454 54.98 8.44467 61.9034 8.1113C62.5478 8.07975 62.5584 7.20161 61.9034 7.20161Z" fill="#544B3D"/>
</g>
<defs>
<clipPath id="clip0_154_116">
<rect width="140" height="126" fill="white"/>
</clipPath>
</defs>
</svg>
